<svg viewBox="0 0 395.52 29.126971463639155" height="29.126971463639155" width="395.52" data-background-color="#ffffff" preserveAspectRatio="xMidYMid meet" id="tight-bounds" xmlns="http://www.w3.org/2000/svg" xmlns:xlink="http://www.w3.org/1999/xlink"><g><svg viewBox="0 0 395.52 29.126971463639155" height="29.126971463639155" width="395.52"><g><svg viewBox="0 0 395.52 29.126971463639155" height="29.126971463639155" width="395.52"><g id="textblocktransform"><svg viewBox="0 0 395.52 29.126971463639155" height="29.126971463639155" width="395.52" id="textblock"><g><svg viewBox="0 0 395.52 29.126971463639155" height="29.126971463639155" width="395.52"><g transform="matrix(1,0,0,1,0,0)"><svg width="395.52" viewBox="4.449999809265137 -35.70000076293945 488.80999755859375 36" height="29.126971463639155" data-palette-color="#076324"><path d="M7.95 0L4.45 0 4.45-35.5 27.75-35.5 27.75-32.4 7.95-32.4 7.95-19.35 24.65-19.35 24.65-16.45 7.95-16.45 7.95 0ZM26.95 0L41.8-35.5 44.75-35.5 59.5 0 55.8 0 51.2-11.1 35.25-11.1 30.7 0 26.95 0ZM36-13.85L50.4-13.85 43.25-31.4 36-13.85ZM68.1 0L64.6 0 64.6-35.5 79.6-35.5Q81.9-35.5 83.8-34.55 85.7-33.6 87.12-31.98 88.55-30.35 89.32-28.38 90.1-26.4 90.1-24.35L90.1-24.35Q90.1-21.8 89.12-19.55 88.15-17.3 86.37-15.75 84.6-14.2 82.2-13.7L82.2-13.7 90.9 0 86.95 0 78.6-13.1 68.1-13.1 68.1 0ZM68.1-32.4L68.1-16.2 79.7-16.2Q81.8-16.2 83.35-17.35 84.9-18.5 85.75-20.38 86.6-22.25 86.6-24.35L86.6-24.35Q86.6-26.5 85.62-28.33 84.65-30.15 83.02-31.28 81.4-32.4 79.4-32.4L79.4-32.4 68.1-32.4ZM132.19 0L128.69 0 128.69-28.9 115.84-6.45 113.64-6.45 100.74-28.9 100.74 0 97.24 0 97.24-35.5 100.84-35.5 114.69-11.2 128.64-35.5 132.19-35.5 132.19 0ZM137.24 0L152.09-35.5 155.04-35.5 169.79 0 166.09 0 161.49-11.1 145.54-11.1 140.99 0 137.24 0ZM146.29-13.85L160.69-13.85 153.54-31.4 146.29-13.85ZM171.24-18L171.24-18Q171.24-21.25 172.36-24.38 173.49-27.5 175.64-30.08 177.79-32.65 180.94-34.18 184.09-35.7 188.09-35.7L188.09-35.7Q192.84-35.7 196.21-33.52 199.59-31.35 201.19-27.95L201.19-27.95 198.44-26.25Q197.29-28.6 195.54-29.98 193.79-31.35 191.81-31.95 189.84-32.55 187.89-32.55L187.89-32.55Q184.69-32.55 182.24-31.28 179.79-30 178.11-27.88 176.44-25.75 175.59-23.13 174.74-20.5 174.74-17.8L174.74-17.8Q174.74-14.85 175.74-12.15 176.74-9.45 178.54-7.38 180.34-5.3 182.76-4.08 185.19-2.85 188.04-2.85L188.04-2.85Q190.04-2.85 192.14-3.55 194.24-4.25 196.06-5.7 197.89-7.15 198.99-9.45L198.99-9.45 201.89-7.95Q200.79-5.3 198.49-3.45 196.19-1.6 193.36-0.65 190.54 0.3 187.84 0.3L187.84 0.3Q184.19 0.3 181.14-1.28 178.09-2.85 175.86-5.48 173.64-8.1 172.44-11.38 171.24-14.65 171.24-18ZM211.39 0L207.89 0 207.89-35.5 211.39-35.5 211.39 0ZM216.43 0L231.28-35.5 234.23-35.5 248.98 0 245.28 0 240.68-11.1 224.73-11.1 220.18 0 216.43 0ZM225.48-13.85L239.88-13.85 232.73-31.4 225.48-13.85ZM268.78 0L265.28 0 265.28-35.5 279.98-35.5Q282.28-35.5 284.2-34.55 286.13-33.6 287.53-31.98 288.93-30.35 289.73-28.38 290.53-26.4 290.53-24.35L290.53-24.35Q290.53-21.45 289.25-18.88 287.98-16.3 285.68-14.7 283.38-13.1 280.28-13.1L280.28-13.1 268.78-13.1 268.78 0ZM268.78-32.4L268.78-16.2 280.13-16.2Q282.23-16.2 283.78-17.35 285.33-18.5 286.18-20.35 287.03-22.2 287.03-24.35L287.03-24.35Q287.03-26.55 286.03-28.4 285.03-30.25 283.4-31.33 281.78-32.4 279.83-32.4L279.83-32.4 268.78-32.4ZM290.08 0L304.93-35.5 307.88-35.5 322.63 0 318.93 0 314.33-11.1 298.38-11.1 293.83 0 290.08 0ZM299.13-13.85L313.53-13.85 306.38-31.4 299.13-13.85ZM349.52-35.5L349.52-32.4 336.87-32.4 336.87 0 333.37 0 333.37-32.4 320.72-32.4 320.72-35.5 349.52-35.5ZM369.27 0.25L369.27 0.25Q365.07 0.25 362.17-1.25 359.27-2.75 357.57-5.28 355.87-7.8 355.1-11 354.32-14.2 354.32-17.6L354.32-17.6 354.32-35.5 357.77-35.5 357.77-17.6Q357.77-14.85 358.35-12.2 358.92-9.55 360.22-7.45 361.52-5.35 363.72-4.13 365.92-2.9 369.22-2.9L369.22-2.9Q372.62-2.9 374.85-4.17 377.07-5.45 378.35-7.55 379.62-9.65 380.17-12.28 380.72-14.9 380.72-17.6L380.72-17.6 380.72-35.5 384.22-35.5 384.22-17.6Q384.22-14.05 383.42-10.8 382.62-7.55 380.85-5.1 379.07-2.65 376.22-1.2 373.37 0.25 369.27 0.25ZM416.57 0L392.57 0 392.57-35.5 396.07-35.5 396.07-3.1 416.57-3.1 416.57 0ZM425.22-3.1L445.57-3.1 445.57 0 421.72 0 421.72-35.5 445.12-35.5 445.12-32.4 425.22-32.4 425.22-19.6 442.57-19.6 442.57-16.65 425.22-16.65 425.22-3.1ZM455.66 0L452.16 0 452.16-35.5 455.66-35.5 455.66 0ZM460.71 0L475.56-35.5 478.51-35.5 493.26 0 489.56 0 484.96-11.1 469.01-11.1 464.46 0 460.71 0ZM469.76-13.85L484.16-13.85 477.01-31.4 469.76-13.85Z" opacity="1" transform="matrix(1,0,0,1,0,0)" fill="#076324" class="wordmark-text-0" data-fill-palette-color="primary" id="text-0"></path></svg></g></svg></g></svg></g></svg></g><g></g></svg></g><defs></defs></svg>